<svg width="38" height="38" viewBox="0 0 38 38" fill="none" xmlns="http://www.w3.org/2000/svg">
<path d="M33.6481 25.9014C32.2547 25.9014 31.6371 25.363 30.7663 24.603C29.8004 23.7797 28.5971 22.7346 26.3328 22.7346C24.0528 22.7346 22.8652 23.7797 21.8993 24.603C21.0285 25.363 20.3952 25.9014 19.0018 25.9014C17.6242 25.9014 16.9909 25.363 16.12 24.603C15.1542 23.7797 13.9508 22.7346 11.6866 22.7346C9.4065 22.7346 8.20313 23.7797 7.23727 24.603C6.36641 25.363 5.74888 25.9014 4.3555 25.9014C3.70632 25.9014 3.16797 26.4397 3.16797 27.0889C3.16797 27.7539 3.70632 28.2765 4.3555 28.2765C6.63557 28.2765 7.82309 27.2473 8.78895 26.4081C9.65981 25.648 10.2932 25.1097 11.6866 25.1097C13.0799 25.1097 13.6975 25.648 14.5683 26.4081C15.5342 27.2473 16.7375 28.2765 19.0018 28.2765C21.2818 28.2765 22.4852 27.2473 23.4511 26.4081C24.3219 25.648 24.9395 25.1097 26.3328 25.1097C27.7104 25.1097 28.3437 25.648 29.2146 26.4081C30.1805 27.2473 31.3838 28.2765 33.6481 28.2765C34.2972 28.2765 34.8356 27.7539 34.8356 27.0889C34.8356 26.4397 34.2972 25.9014 33.6481 25.9014Z" fill="#141416"/>
<path d="M33.6481 19.3819C32.2547 19.3819 31.6371 18.8277 30.7663 18.0835C29.8004 17.2443 28.5971 16.2151 26.3328 16.2151C24.0528 16.2151 22.8652 17.2443 21.8993 18.0835C21.0285 18.8277 20.3952 19.3819 19.0018 19.3819C17.6242 19.3819 16.9909 18.8277 16.12 18.0835C15.1542 17.2443 13.9508 16.2151 11.6866 16.2151C9.4065 16.2151 8.20313 17.2443 7.23727 18.0835C6.36641 18.8277 5.74888 19.3819 4.3555 19.3819C3.70632 19.3819 3.16797 19.9044 3.16797 20.5694C3.16797 21.2186 3.70632 21.757 4.3555 21.757C6.63557 21.757 7.82309 20.712 8.78895 19.8728C9.65981 19.1286 10.2932 18.5902 11.6866 18.5902C13.0799 18.5902 13.6975 19.1286 14.5683 19.8728C15.5342 20.712 16.7375 21.757 19.0018 21.757C21.2818 21.757 22.4852 20.712 23.4511 19.8728C24.3219 19.1286 24.9395 18.5902 26.3328 18.5902C27.7104 18.5902 28.3437 19.1286 29.2146 19.8728C30.1805 20.712 31.3838 21.757 33.6481 21.757C34.2972 21.757 34.8356 21.2186 34.8356 20.5694C34.8356 19.9044 34.2972 19.3819 33.6481 19.3819Z" fill="#141416"/>
<path d="M4.3555 15.265C6.63557 15.265 7.82309 14.22 8.78895 13.3967C9.65981 12.6366 10.2932 12.0983 11.6866 12.0983C13.0799 12.0983 13.6975 12.6366 14.5683 13.3967C15.5342 14.22 16.7375 15.265 19.0018 15.265C21.2818 15.265 22.4852 14.22 23.4511 13.3967C24.3219 12.6366 24.9395 12.0983 26.3328 12.0983C27.7104 12.0983 28.3437 12.6366 29.2146 13.3967C30.1805 14.22 31.3838 15.265 33.648 15.265C34.2972 15.265 34.8356 14.7267 34.8356 14.0775C34.8356 13.4125 34.2972 12.89 33.648 12.89C32.2547 12.89 31.6371 12.3516 30.7663 11.5916C29.8004 10.7524 28.5971 9.72321 26.3328 9.72321C24.0528 9.72321 22.8652 10.7524 21.8993 11.5916C21.0285 12.3516 20.3952 12.89 19.0018 12.89C17.6242 12.89 16.9909 12.3516 16.12 11.5916C15.1541 10.7524 13.9508 9.72321 11.6866 9.72321C9.4065 9.72321 8.20313 10.7524 7.23727 11.5916C6.36641 12.3516 5.74888 12.89 4.3555 12.89C3.70632 12.89 3.16797 13.4125 3.16797 14.0775C3.16797 14.7267 3.70632 15.265 4.3555 15.265Z" fill="#141416"/>
</svg>
